<svg t="1687918759599" class="icon" viewBox="0 0 1024 1024" version="1.1" xmlns="http://www.w3.org/2000/svg" p-id="2241" width="32" height="32"><path d="M511.868892 1023.999069A512.008492 512.008492 0 0 1 312.627803 40.489527a512.000737 512.000737 0 0 1 398.482177 943.289056A508.665833 508.665833 0 0 1 511.868892 1023.999069zM343.05298 313.881805L324.183631 334.232471a86.443798 86.443798 0 0 0-17.992967 30.386399 115.054167 115.054167 0 0 0-6.095893 43.04352c0.961693 27.865832 14.851953 65.302062 39.119192 105.398458a511.155378 511.155378 0 0 0 85.683751 105.848283c64.891015 60.67973 146.782283 99.899745 208.625351 99.899745a105.778482 105.778482 0 0 0 42.764319-8.073568 88.475762 88.475762 0 0 0 23.794148-15.511179h0.054289l1.985431-1.326206a13.184502 13.184502 0 0 0 2.443011-2.03972l19.854308-21.366648a13.471459 13.471459 0 0 0 3.598594-9.609175 13.316347 13.316347 0 0 0-4.265574-9.306707l-9.616931-8.965462-83.496674-78.106539a13.300836 13.300836 0 0 0-9.120573-3.598594h-0.473091a13.424925 13.424925 0 0 0-9.306707 4.281086l-20.839269 22.390386-14.130683 15.216466a56.282311 56.282311 0 0 1-9.384263 0.65147 112.936891 112.936891 0 0 1-38.731413-7.429855 171.739769 171.739769 0 0 1-57.391361-36.668426 161.432591 161.432591 0 0 1-46.59558-70.971397 86.986689 86.986689 0 0 1-4.203529-31.301559l35.202619-37.824009a13.432681 13.432681 0 0 0-0.66698-18.95466l-93.067072-87.048734a13.331858 13.331858 0 0 0-9.128328-3.598593h-0.473091a13.277569 13.277569 0 0 0-9.306707 4.250063z" fill="#47E08E" p-id="2242"></path></svg>